<svg width="70" height="44" viewBox="0 0 70 44" fill="none" xmlns="http://www.w3.org/2000/svg">
<path d="M24.6364 16.3636V28H23.2727L16.9318 18.8636H16.8182V28H15.4091V16.3636H16.7727L23.1364 25.5227H23.25V16.3636H24.6364ZM35.4105 20C35.2855 19.6174 35.1207 19.2746 34.9162 18.9716C34.7154 18.6648 34.4749 18.4034 34.1946 18.1875C33.9181 17.9716 33.6037 17.8068 33.2514 17.6932C32.8991 17.5795 32.5128 17.5227 32.0923 17.5227C31.4029 17.5227 30.776 17.7008 30.2116 18.0568C29.6473 18.4129 29.1984 18.9375 28.8651 19.6307C28.5317 20.3239 28.3651 21.1742 28.3651 22.1818C28.3651 23.1894 28.5336 24.0398 28.8707 24.733C29.2079 25.4261 29.6643 25.9508 30.2401 26.3068C30.8158 26.6629 31.4635 26.8409 32.1832 26.8409C32.8499 26.8409 33.437 26.6989 33.9446 26.4148C34.456 26.1269 34.8537 25.7216 35.1378 25.1989C35.4257 24.6723 35.5696 24.053 35.5696 23.3409L36.0014 23.4318H32.5014V22.1818H36.9332V23.4318C36.9332 24.3902 36.7287 25.2235 36.3196 25.9318C35.9143 26.6402 35.3537 27.1894 34.6378 27.5795C33.9257 27.9659 33.1075 28.1591 32.1832 28.1591C31.1529 28.1591 30.2476 27.9167 29.4673 27.4318C28.6908 26.947 28.0848 26.2576 27.6491 25.3636C27.2173 24.4697 27.0014 23.4091 27.0014 22.1818C27.0014 21.2614 27.1245 20.4337 27.3707 19.6989C27.6207 18.9602 27.973 18.3314 28.4276 17.8125C28.8821 17.2936 29.42 16.8958 30.0412 16.6193C30.6624 16.3428 31.3461 16.2045 32.0923 16.2045C32.706 16.2045 33.2779 16.2973 33.8082 16.483C34.3423 16.6648 34.8177 16.9242 35.2344 17.2614C35.6548 17.5947 36.0052 17.9943 36.2855 18.4602C36.5658 18.9223 36.759 19.4356 36.8651 20H35.4105Z" fill="#101828"/>
<path d="M43 19.5L48 24.5L53 19.5" stroke="#667085" stroke-width="1.66667" stroke-linecap="round" stroke-linejoin="round"/>
</svg>
