<svg width="32" height="32" viewBox="0 0 32 32" fill="none" xmlns="http://www.w3.org/2000/svg">
<rect width="32" height="32" rx="4" fill="white"/>
<path d="M19.125 10.5C17.8344 10.5 16.7044 11.055 16 11.9931C15.2956 11.055 14.1656 10.5 12.875 10.5C11.8476 10.5012 10.8627 10.9098 10.1362 11.6362C9.40979 12.3627 9.00116 13.3476 9 14.375C9 18.75 15.4869 22.2913 15.7631 22.4375C15.8359 22.4767 15.9173 22.4972 16 22.4972C16.0827 22.4972 16.1641 22.4767 16.2369 22.4375C16.5131 22.2913 23 18.75 23 14.375C22.9988 13.3476 22.5902 12.3627 21.8638 11.6362C21.1373 10.9098 20.1524 10.5012 19.125 10.5ZM16 21.425C14.8587 20.76 10 17.7306 10 14.375C10.001 13.6128 10.3042 12.8821 10.8432 12.3432C11.3821 11.8042 12.1128 11.501 12.875 11.5C14.0906 11.5 15.1112 12.1475 15.5375 13.1875C15.5752 13.2792 15.6393 13.3576 15.7216 13.4128C15.804 13.468 15.9009 13.4975 16 13.4975C16.0991 13.4975 16.196 13.468 16.2784 13.4128C16.3607 13.3576 16.4248 13.2792 16.4625 13.1875C16.8887 12.1456 17.9094 11.5 19.125 11.5C19.8872 11.501 20.6179 11.8042 21.1568 12.3432C21.6958 12.8821 21.999 13.6128 22 14.375C22 17.7256 17.14 20.7594 16 21.425Z" fill="black" fill-opacity="0.5"/>
</svg>
