<svg width="24" height="24" viewBox="0 0 24 24" fill="none" xmlns="http://www.w3.org/2000/svg">
<path fill-rule="evenodd" clip-rule="evenodd" d="M4.5 3H19.5C19.8978 3 20.2794 3.15804 20.5607 3.43934C20.842 3.72064 21 4.10218 21 4.5V19.5C21 19.8978 20.842 20.2794 20.5607 20.5607C20.2794 20.842 19.8978 21 19.5 21H4.5C4.10218 21 3.72064 20.842 3.43934 20.5607C3.15804 20.2794 3 19.8978 3 19.5V4.5C3 4.10218 3.15804 3.72064 3.43934 3.43934C3.72064 3.15804 4.10218 3 4.5 3ZM6 17.25H9.75C9.94891 17.25 10.1397 17.171 10.2803 17.0303C10.421 16.8897 10.5 16.6989 10.5 16.5C10.5 16.3011 10.421 16.1103 10.2803 15.9697C10.1397 15.829 9.94891 15.75 9.75 15.75H6C5.80109 15.75 5.61032 15.829 5.46967 15.9697C5.32902 16.1103 5.25 16.3011 5.25 16.5C5.25 16.6989 5.32902 16.8897 5.46967 17.0303C5.61032 17.171 5.80109 17.25 6 17.25ZM5.46967 11.4697C5.32902 11.6103 5.25 11.8011 5.25 12C5.25 12.1989 5.32902 12.3897 5.46967 12.5303C5.61032 12.671 5.80109 12.75 6 12.75H9C9.19891 12.75 9.38968 12.671 9.53033 12.5303C9.67098 12.3897 9.75 12.1989 9.75 12C9.75 11.8011 9.67098 11.6103 9.53033 11.4697C9.38968 11.329 9.19891 11.25 9 11.25H6C5.80109 11.25 5.61032 11.329 5.46967 11.4697ZM6 8.25H18C18.1989 8.25 18.3897 8.17098 18.5303 8.03033C18.671 7.88968 18.75 7.69891 18.75 7.5C18.75 7.30109 18.671 7.11032 18.5303 6.96967C18.3897 6.82902 18.1989 6.75 18 6.75H6C5.80109 6.75 5.61032 6.82902 5.46967 6.96967C5.32902 7.11032 5.25 7.30109 5.25 7.5C5.25 7.69891 5.32902 7.88968 5.46967 8.03033C5.61032 8.17098 5.80109 8.25 6 8.25ZM13.0126 11.005C13.6688 10.3422 14.5584 9.96933 15.4863 9.96826C16.4143 9.96933 17.3039 10.3422 17.96 11.005C18.6162 11.6679 18.9853 12.5666 18.9863 13.504C18.9863 16.5295 15.8045 18.8145 15.6689 18.9101C15.6154 18.948 15.5516 18.9683 15.4863 18.9683C15.421 18.9683 15.3573 18.948 15.3038 18.9101C15.1681 18.8145 11.9863 16.5295 11.9863 13.504C11.9874 12.5666 12.3565 11.6679 13.0126 11.005ZM16.1934 12.435C15.9841 12.2937 15.738 12.2183 15.4863 12.2183C15.1488 12.2183 14.8251 12.3537 14.5864 12.5949C14.3477 12.836 14.2136 13.163 14.2136 13.504C14.2136 13.7583 14.2882 14.0069 14.4281 14.2183C14.5679 14.4298 14.7667 14.5946 14.9993 14.6919C15.2318 14.7892 15.4877 14.8146 15.7346 14.765C15.9815 14.7154 16.2083 14.593 16.3863 14.4132C16.5643 14.2333 16.6855 14.0043 16.7346 13.7548C16.7837 13.5054 16.7585 13.2469 16.6622 13.012C16.5658 12.777 16.4027 12.5762 16.1934 12.435Z" fill="#077929"/>
</svg>
