<svg width="24" height="24" viewBox="0 0 24 24" fill="none" xmlns="http://www.w3.org/2000/svg">
<path d="M12.0176 16.9252H19.2V2.41764C19.2 2.18684 19.0132 2 18.7824 2H12.0176V16.9252ZM13.0892 8.69877C13.0892 8.46797 13.2761 8.28113 13.5069 8.28113C13.7377 8.28113 13.9245 8.46797 13.9245 8.69877V11.0563C13.9245 11.2871 13.7377 11.4739 13.5069 11.4739C13.2761 11.4739 13.0892 11.2871 13.0892 11.0563V8.69877Z" fill="#077929"/>
<path d="M11.1824 16.9252V2H4.41764C4.18684 2 4 2.18684 4 2.41764V16.9252H11.1824ZM9.27549 8.69877C9.27549 8.46797 9.46233 8.28113 9.69313 8.28113C9.92393 8.28113 10.1108 8.46797 10.1108 8.69877V11.0563C10.1108 11.2871 9.92393 11.4739 9.69313 11.4739C9.46233 11.4739 9.27549 11.2871 9.27549 11.0563V8.69877Z" fill="#077929"/>
<path d="M11.6 17.755H4V22.2007C4 22.4315 4.18684 22.6184 4.41764 22.6184H5.58814C5.7475 22.6184 5.89588 22.5249 5.96182 22.3821L6.68171 20.8818H16.5128L17.2327 22.3821C17.3041 22.5304 17.447 22.6184 17.6119 22.6184H18.7824C19.0132 22.6184 19.2 22.4315 19.2 22.2007V17.7605H11.6V17.755ZM12.8749 19.3212H10.3196C10.0888 19.3212 9.90195 19.1343 9.90195 18.9035C9.90195 18.6727 10.0888 18.4859 10.3196 18.4859H12.8749C13.1057 18.4859 13.2926 18.6727 13.2926 18.9035C13.2926 19.1343 13.1057 19.3212 12.8749 19.3212Z" fill="#077929"/>
</svg>
