<svg width="24" height="24" viewBox="0 0 24 24" fill="none" xmlns="http://www.w3.org/2000/svg">
<path d="M13.9043 11.155C14.1355 11.155 14.3215 10.9673 14.3215 10.7338V8.35395C14.3215 8.12052 14.1355 7.93277 13.9043 7.93277C13.6731 7.93277 13.4871 8.12052 13.4871 8.35395V10.7338C13.4871 10.9673 13.6731 11.155 13.9043 11.155Z" fill="black" fill-opacity="0.4"/>
<path d="M10.0834 7.93784C9.85218 7.93784 9.6662 8.12559 9.6662 8.35902V10.7389C9.6662 10.9723 9.85218 11.1601 10.0834 11.1601C10.3146 11.1601 10.5006 10.9723 10.5006 10.7389V8.35902C10.5006 8.12559 10.3146 7.93784 10.0834 7.93784Z" fill="black" fill-opacity="0.4"/>
<path d="M13.271 18.2287H10.7176C10.4864 18.2287 10.3004 18.4165 10.3004 18.6499C10.3004 18.8833 10.4864 19.0711 10.7176 19.0711H13.271C13.5022 19.0711 13.6882 18.8833 13.6882 18.6499C13.6882 18.4165 13.5022 18.2287 13.271 18.2287Z" fill="black" fill-opacity="0.4"/>
<path d="M19.172 1.5999H4.81641C4.5852 1.5999 4.39922 1.78766 4.39922 2.02108V21.9787C4.39922 22.2121 4.5852 22.3999 4.81641 22.3999H5.98758C6.14842 22.3999 6.29419 22.3086 6.36456 22.1614L7.08334 20.6492H16.9151L17.6339 22.1614C17.7042 22.3086 17.85 22.3999 18.0109 22.3999H19.182C19.4132 22.3999 19.5992 22.2121 19.5992 21.9787V2.016C19.5892 1.78766 19.4032 1.5999 19.172 1.5999ZM5.22858 19.8069V17.498H18.7598V19.8069H5.22858ZM18.7598 16.6557H12.4114V2.43718H18.7598V16.6557ZM5.22858 2.43718H11.577V16.6557H5.22858V2.43718ZM5.72118 21.5576H5.22858V20.6492H6.15345L5.72118 21.5576ZM18.7598 21.5576H18.2672L17.8349 20.6492H18.7598V21.5576Z" fill="black" fill-opacity="0.4"/>
<path fill-rule="evenodd" clip-rule="evenodd" d="M6.54499 22.2477C6.44146 22.4642 6.22561 22.5999 5.98758 22.5999H4.81641C4.47295 22.5999 4.19922 22.3208 4.19922 21.9787V2.02108C4.19922 1.67899 4.47295 1.3999 4.81641 1.3999H19.172C19.5155 1.3999 19.7845 1.67724 19.799 2.00721L19.7994 2.016L19.7992 21.9787C19.7992 22.3208 19.5255 22.5999 19.182 22.5999H18.0109C17.7728 22.5999 17.557 22.4642 17.4534 22.2477L16.7887 20.8492H7.20972L6.54499 22.2477ZM7.08334 20.6492H16.9151L17.6339 22.1614C17.7042 22.3086 17.85 22.3999 18.0109 22.3999H19.182C19.4132 22.3999 19.5992 22.2121 19.5992 21.9787V2.016C19.5892 1.78766 19.4032 1.5999 19.172 1.5999H4.81641C4.5852 1.5999 4.39922 1.78766 4.39922 2.02108V21.9787C4.39922 22.2121 4.5852 22.3999 4.81641 22.3999H5.98758C6.14842 22.3999 6.29419 22.3086 6.36456 22.1614L7.08334 20.6492ZM14.5215 10.7338C14.5215 11.0759 14.2477 11.355 13.9043 11.355C13.5608 11.355 13.2871 11.0759 13.2871 10.7338V8.35395C13.2871 8.01186 13.5608 7.73277 13.9043 7.73277C14.2477 7.73277 14.5215 8.01186 14.5215 8.35395V10.7338ZM9.4662 8.35902C9.4662 8.01693 9.73993 7.73784 10.0834 7.73784C10.4269 7.73784 10.7006 8.01693 10.7006 8.35902V10.7389C10.7006 11.081 10.4269 11.3601 10.0834 11.3601C9.73993 11.3601 9.4662 11.081 9.4662 10.7389V8.35902ZM10.7176 18.0287H13.271C13.6145 18.0287 13.8882 18.3078 13.8882 18.6499C13.8882 18.992 13.6145 19.2711 13.271 19.2711H10.7176C10.3741 19.2711 10.1004 18.992 10.1004 18.6499C10.1004 18.3078 10.3741 18.0287 10.7176 18.0287ZM5.42858 17.698V19.6069H18.5598V17.698H5.42858ZM12.6114 16.4557H18.5598V2.63718H12.6114V16.4557ZM11.377 2.63718H5.42858V16.4557H11.377V2.63718ZM5.59486 21.3576L5.83678 20.8492H5.42858V21.3576H5.59486ZM5.22858 20.6492V21.5576H5.72118L6.15345 20.6492H5.22858ZM18.3935 21.3576H18.5598V20.8492H18.1516L18.3935 21.3576ZM18.2672 21.5576L17.8349 20.6492H18.7598V21.5576H18.2672ZM5.22858 19.8069H18.7598V17.498H5.22858V19.8069ZM18.7598 16.6557V2.43718H12.4114V16.6557H18.7598ZM5.22858 2.43718V16.6557H11.577V2.43718H5.22858ZM14.3215 10.7338C14.3215 10.9673 14.1355 11.155 13.9043 11.155C13.6731 11.155 13.4871 10.9673 13.4871 10.7338V8.35395C13.4871 8.12052 13.6731 7.93277 13.9043 7.93277C14.1355 7.93277 14.3215 8.12052 14.3215 8.35395V10.7338ZM9.6662 8.35902C9.6662 8.12559 9.85218 7.93784 10.0834 7.93784C10.3146 7.93784 10.5006 8.12559 10.5006 8.35902V10.7389C10.5006 10.9723 10.3146 11.1601 10.0834 11.1601C9.85218 11.1601 9.6662 10.9723 9.6662 10.7389V8.35902ZM13.271 18.2287H10.7176C10.4864 18.2287 10.3004 18.4165 10.3004 18.6499C10.3004 18.8833 10.4864 19.0711 10.7176 19.0711H13.271C13.5022 19.0711 13.6882 18.8833 13.6882 18.6499C13.6882 18.4165 13.5022 18.2287 13.271 18.2287Z" fill="black" fill-opacity="0.4"/>
</svg>
