<svg width="160" height="160" viewBox="0 0 160 160" fill="none" xmlns="http://www.w3.org/2000/svg">
<g clip-path="url(#clip0_2016_2110)">
<path d="M79.9994 57.1995C94.7587 57.1995 106.723 45.2347 106.723 30.4755C106.723 15.7162 94.7587 3.75146 79.9994 3.75146C65.2401 3.75146 53.2754 15.7162 53.2754 30.4755C53.2754 45.2347 65.2401 57.1995 79.9994 57.1995Z" fill="#6AC8B7"/>
<path d="M85.3444 49.1836C70.585 49.1836 58.6204 37.2189 58.6204 22.4596C58.6204 18.7133 59.3944 15.1487 60.786 11.9121C56.1394 16.7202 53.2754 23.2621 53.2754 30.4768C53.2754 45.2361 65.2401 57.2008 79.9994 57.2008C91.0125 57.2008 100.467 50.5373 104.558 41.0239C99.6987 46.052 92.8891 49.1836 85.3444 49.1836Z" fill="#2DB59F"/>
<path d="M75.9923 42.5024C74.9664 42.5024 73.9405 42.1108 73.158 41.3283L65.1408 33.3111C63.5755 31.7455 63.5755 29.2077 65.1408 27.6421C66.7064 26.0768 69.2442 26.0768 70.8098 27.6421L75.9926 32.8249L89.1926 19.6249C90.7582 18.0596 93.296 18.0596 94.8617 19.6249C96.427 21.1905 96.427 23.7283 94.8617 25.294L78.8273 41.3283C78.0439 42.1111 77.0183 42.5024 75.9923 42.5024Z" fill="white"/>
<path d="M109.395 67.8892H18.5332V156.079H109.395V67.8892Z" fill="#FDD042"/>
<path d="M26.5504 67.8892H18.5332V156.079H26.5504V67.8892Z" fill="#F2C127"/>
<path d="M93.362 102.632H2.5L18.5343 67.8904H109.396L93.362 102.632Z" fill="#FDDD85"/>
<path d="M141.464 67.8892H109.395V156.079H141.464V67.8892Z" fill="#FDDD85"/>
<path d="M157.5 102.632H125.431L109.396 67.8904H141.465L157.5 102.632Z" fill="#FDE5A2"/>
<path d="M133.446 137.372H117.412V145.389H133.446V137.372Z" fill="#74757B"/>
<path d="M98.7053 113.32H29.2227V124.01H98.7053V113.32Z" fill="#E1A527"/>
<path d="M79.9992 59.706C96.1166 59.706 109.229 46.5939 109.229 30.4764C109.229 26.4126 108.41 22.4789 106.796 18.7836C106.242 17.5155 104.764 16.9361 103.497 17.4911C102.229 18.0449 101.65 19.5217 102.204 20.7898C103.541 23.8483 104.218 27.1073 104.218 30.4764C104.218 43.8307 93.3538 54.6951 79.9995 54.6951C66.6451 54.6951 55.7808 43.8307 55.7808 30.4764C55.7808 17.122 66.6451 6.25769 79.9995 6.25769C86.3785 6.25769 92.3994 8.71674 96.9535 13.182C97.9416 14.1505 99.5276 14.1355 100.496 13.1474C101.465 12.1592 101.449 10.5733 100.461 9.60456C94.9651 4.21519 87.6982 1.24707 79.9992 1.24707C63.8817 1.24707 50.7695 14.3592 50.7695 30.4767C50.7695 46.5942 63.8823 59.706 79.9992 59.706Z" fill="black"/>
<path d="M87.4189 17.853L75.9908 29.2817L72.5796 25.8705C70.0399 23.3308 65.9071 23.3311 63.3674 25.8708C60.828 28.4105 60.828 32.5433 63.3674 35.083L71.3846 43.1001C73.8958 45.6108 78.0852 45.6104 80.5968 43.1001L96.6311 27.0655C99.1705 24.5258 99.1705 20.393 96.6308 17.8533C94.0917 15.3142 89.9592 15.3142 87.4189 17.853ZM93.088 23.5224L77.054 39.5567C76.4746 40.1361 75.5071 40.1364 74.9277 39.5567L66.9105 31.5398C66.3243 30.9536 66.3243 29.9998 66.9102 29.4139C67.4883 28.8361 68.4583 28.8358 69.0365 29.4139L74.2193 34.5967C75.1977 35.5748 76.7843 35.5748 77.7621 34.5967L90.9617 21.3967C91.5477 20.8108 92.5014 20.8108 93.0877 21.3964C93.6742 21.9827 93.6742 22.9364 93.088 23.5224Z" fill="black"/>
<path d="M159.775 101.666L143.74 66.9662C143.331 66.0791 142.443 65.5525 141.465 65.5525H18.5345C17.5573 65.5525 16.6692 66.0372 16.2595 66.9244L0.225145 101.707C-0.528604 103.34 0.706394 105.305 2.50014 105.305H15.8623V156.08C15.8623 157.465 17.1511 158.753 18.5348 158.753H141.466C142.85 158.753 143.804 157.465 143.804 156.08V105.305H157.5C159.294 105.304 160.529 103.299 159.775 101.666ZM20.8729 105.304H58.6207C60.0044 105.304 61.126 104.183 61.126 102.799C61.126 101.415 60.0041 100.294 58.6207 100.294H6.41576L20.1376 70.5631H105.481L91.759 100.294H69.3103C67.9266 100.294 66.805 101.415 66.805 102.799C66.805 104.183 67.9269 105.304 69.3103 105.304H93.3622C94.3393 105.304 95.144 104.652 95.5534 103.765L106.724 79.2972V153.742H20.8729V105.304ZM138.793 153.742H111.735V79.2975L123.073 103.766C123.483 104.653 124.454 105.305 125.431 105.305H138.794V153.742H138.793ZM127.034 100.294L113.312 70.5631H139.862L153.584 100.294H127.034Z" fill="black"/>
<path d="M29.058 134.868C27.6743 134.868 26.5527 135.989 26.5527 137.373V145.39C26.5527 146.774 27.6746 147.896 29.058 147.896C30.4418 147.896 31.5633 146.774 31.5633 145.39V137.373C31.5633 135.989 30.4415 134.868 29.058 134.868Z" fill="black"/>
<path d="M37.0737 134.868C35.6899 134.868 34.5684 135.989 34.5684 137.373V145.39C34.5684 146.774 35.6902 147.896 37.0737 147.896C38.4574 147.896 39.579 146.774 39.579 145.39V137.373C39.579 135.989 38.4574 134.868 37.0737 134.868Z" fill="black"/>
<path d="M50.4369 134.868C49.0532 134.868 47.9316 135.989 47.9316 137.373V145.39C47.9316 146.774 49.0535 147.896 50.4369 147.896C51.8204 147.896 52.9423 146.774 52.9423 145.39V137.373C52.9423 135.989 51.8204 134.868 50.4369 134.868Z" fill="black"/>
<path d="M58.4545 134.868C57.0708 134.868 55.9492 135.989 55.9492 137.373V145.39C55.9492 146.774 57.0711 147.896 58.4545 147.896C59.838 147.896 60.9598 146.774 60.9598 145.39V137.373C60.9598 135.989 59.8383 134.868 58.4545 134.868Z" fill="black"/>
<path d="M66.4702 134.868C65.0864 134.868 63.9648 135.989 63.9648 137.373V145.39C63.9648 146.774 65.0867 147.896 66.4702 147.896C67.8536 147.896 68.9755 146.774 68.9755 145.39V137.373C68.9755 135.989 67.8539 134.868 66.4702 134.868Z" fill="black"/>
<path d="M77.1596 134.868C75.7759 134.868 74.6543 135.989 74.6543 137.373V145.39C74.6543 146.774 75.7762 147.896 77.1596 147.896C78.5434 147.896 79.6649 146.774 79.6649 145.39V137.373C79.6649 135.989 78.5434 134.868 77.1596 134.868Z" fill="black"/>
<path d="M85.1772 134.868C83.7934 134.868 82.6719 135.989 82.6719 137.373V145.39C82.6719 146.774 83.7937 147.896 85.1772 147.896C86.5609 147.896 87.6825 146.774 87.6825 145.39V137.373C87.6828 135.989 86.5609 134.868 85.1772 134.868Z" fill="black"/>
<path d="M98.5405 134.868C97.1567 134.868 96.0352 135.989 96.0352 137.373V145.39C96.0352 146.774 97.157 147.896 98.5405 147.896C99.9242 147.896 101.046 146.774 101.046 145.39V137.373C101.046 135.989 99.9242 134.868 98.5405 134.868Z" fill="black"/>
<path d="M135.787 137.54C135.787 136.156 134.665 135.035 133.282 135.035H117.247C115.864 135.035 114.742 136.157 114.742 137.54V145.557C114.742 146.941 115.864 148.062 117.247 148.062H133.282C134.666 148.062 135.787 146.941 135.787 145.557V137.54ZM130.776 143.052H119.752V140.045H130.776V143.052Z" fill="black"/>
<path d="M101.046 113.488C101.046 112.105 99.9242 110.983 98.5407 110.983H29.058C27.6743 110.983 26.5527 112.105 26.5527 113.488V124.178C26.5527 125.562 27.6746 126.683 29.058 126.683H98.5407C99.9245 126.683 101.046 125.562 101.046 124.178V113.488ZM96.0354 121.673H31.5633V115.994H96.0354V121.673Z" fill="black"/>
<path d="M123.659 111.55L115.642 119.567C114.664 120.546 114.664 122.132 115.642 123.11C116.62 124.089 118.123 124.089 119.101 123.11L122.758 119.37V126.684C122.758 128.068 123.88 129.189 125.264 129.189C126.647 129.189 127.769 128.067 127.769 126.684V119.37L131.593 123.11C132.611 124.129 134.374 124.061 135.311 122.966C136.15 121.986 136.111 120.479 135.199 119.567L127.192 111.549C126.214 110.572 124.638 110.572 123.659 111.55Z" fill="black"/>
</g>
<defs>
<clipPath id="clip0_2016_2110">
<rect width="160" height="160" fill="white"/>
</clipPath>
</defs>
</svg>
